<svg width="13" height="12" viewBox="0 0 13 12" fill="none" xmlns="http://www.w3.org/2000/svg">
<g clip-path="url(#clip0_37_238)">
<path d="M7.5983 12H4.93164V4H7.5983V5.33333C7.87903 4.97617 8.23532 4.68557 8.64161 4.48237C9.04791 4.27916 9.49414 4.16839 9.9483 4.158C10.7426 4.16241 11.5027 4.48161 12.0619 5.04562C12.6212 5.60962 12.9339 6.37239 12.9316 7.16666V12H10.265V7.49999C10.2134 7.13971 10.0334 6.81017 9.75816 6.57204C9.48292 6.33391 9.13092 6.20321 8.76697 6.20399C8.60407 6.20914 8.44389 6.24715 8.29605 6.31572C8.1482 6.3843 8.01574 6.48204 7.90659 6.60307C7.79745 6.72411 7.71388 6.86594 7.66091 7.02007C7.60793 7.17419 7.58664 7.33743 7.5983 7.49999V12ZM3.5983 12H0.931641V4H3.5983V12ZM2.26497 2.66666C1.91135 2.66666 1.57221 2.52619 1.32216 2.27614C1.07212 2.02609 0.931641 1.68695 0.931641 1.33333C0.931641 0.97971 1.07212 0.640572 1.32216 0.390524C1.57221 0.140476 1.91135 0 2.26497 0C2.61859 0 2.95773 0.140476 3.20778 0.390524C3.45783 0.640572 3.5983 0.97971 3.5983 1.33333C3.5983 1.68695 3.45783 2.02609 3.20778 2.27614C2.95773 2.52619 2.61859 2.66666 2.26497 2.66666Z" fill="white"/>
</g>
<defs>
<clipPath id="clip0_37_238">
<rect width="12" height="12" fill="white" transform="translate(0.931641)"/>
</clipPath>
</defs>
</svg>
