<svg width="17" height="17" viewBox="0 0 17 17" fill="none" xmlns="http://www.w3.org/2000/svg">
<g clip-path="url(#clip0_37_241)">
<path d="M8.96611 4.87481C8.15693 4.87481 7.36592 5.11476 6.69311 5.56432C6.0203 6.01388 5.4959 6.65285 5.18624 7.40044C4.87658 8.14803 4.79556 8.97065 4.95342 9.76429C5.11129 10.5579 5.50095 11.2869 6.07312 11.8591C6.6453 12.4313 7.3743 12.8209 8.16794 12.9788C8.96158 13.1367 9.7842 13.0556 10.5318 12.746C11.2794 12.4363 11.9184 11.9119 12.3679 11.2391C12.8175 10.5663 13.0574 9.7753 13.0574 8.96611C13.0587 8.42847 12.9538 7.89586 12.7487 7.39888C12.5435 6.90191 12.2422 6.45037 11.862 6.07019C11.4819 5.69001 11.0303 5.3887 10.5333 5.18356C10.0364 4.97842 9.50376 4.87349 8.96611 4.87481ZM8.96611 11.6305C8.43916 11.6305 7.92404 11.4742 7.48589 11.1814C7.04774 10.8887 6.70624 10.4726 6.50459 9.98571C6.30293 9.49887 6.25017 8.96316 6.35297 8.44633C6.45577 7.9295 6.70953 7.45476 7.08214 7.08214C7.45476 6.70953 7.9295 6.45577 8.44633 6.35297C8.96316 6.25017 9.49887 6.30293 9.98571 6.50459C10.4726 6.70624 10.8887 7.04774 11.1814 7.48589C11.4742 7.92404 11.6305 8.43916 11.6305 8.96611C11.6305 9.67274 11.3497 10.3504 10.8501 10.8501C10.3504 11.3497 9.67274 11.6305 8.96611 11.6305ZM14.185 4.70517C14.185 4.90253 14.1265 5.09546 14.0169 5.25956C13.9072 5.42366 13.7514 5.55156 13.569 5.62709C13.3867 5.70262 13.186 5.72238 12.9925 5.68387C12.7989 5.64537 12.6211 5.55033 12.4815 5.41078C12.342 5.27122 12.2469 5.09342 12.2084 4.89985C12.1699 4.70628 12.1897 4.50564 12.2652 4.3233C12.3408 4.14096 12.4687 3.98511 12.6328 3.87546C12.7969 3.76581 12.9898 3.70729 13.1871 3.70729C13.4518 3.70729 13.7056 3.81242 13.8928 3.99956C14.0799 4.1867 14.185 4.44052 14.185 4.70517ZM16.8893 5.70305C16.9183 4.46251 16.4556 3.26083 15.602 2.36015C14.7061 1.49568 13.5039 1.02195 12.2591 1.04295C10.9619 0.983079 6.97036 0.983079 5.67311 1.04295C4.43295 1.0161 3.23207 1.47853 2.33022 2.33022C1.47666 3.2309 1.01393 4.43257 1.04295 5.67311C0.983079 6.97036 0.983079 10.9619 1.04295 12.2591C1.01393 13.4997 1.47666 14.7013 2.33022 15.602C3.23207 16.4537 4.43295 16.9161 5.67311 16.8893C6.99031 16.9691 10.9419 16.9691 12.2591 16.8893C13.4997 16.9183 14.7013 16.4556 15.602 15.602C16.4556 14.7013 16.9183 13.4997 16.8893 12.2591C16.9492 10.9619 16.9492 6.97036 16.8893 5.67311V5.70305ZM15.1929 13.6861C15.0574 14.0293 14.8529 14.341 14.5919 14.6019C14.331 14.8628 14.0193 15.0674 13.6761 15.2029C12.127 15.5161 10.5433 15.6234 8.96611 15.5222C7.39222 15.6236 5.81182 15.5162 4.2661 15.2029C3.92289 15.0674 3.61117 14.8628 3.35026 14.6019C3.08935 14.341 2.88481 14.0293 2.74933 13.6861C2.33022 12.6283 2.42003 10.1336 2.42003 8.97609C2.42003 7.81855 2.33022 5.31388 2.74933 4.2661C2.88099 3.91951 3.08406 3.60447 3.34537 3.34144C3.60668 3.07842 3.92038 2.87328 4.2661 2.73935C5.81182 2.42599 7.39222 2.31862 8.96611 2.42003C10.5433 2.31879 12.127 2.42615 13.6761 2.73935C14.0193 2.87483 14.331 3.07937 14.5919 3.34028C14.8529 3.60119 15.0574 3.91291 15.1929 4.25612C15.612 5.31388 15.5122 7.80857 15.5122 8.96611C15.5122 10.1237 15.612 12.6283 15.1929 13.6761V13.6861Z" fill="white"/>
</g>
<defs>
<clipPath id="clip0_37_241">
<rect width="15.9661" height="15.9661" fill="white" transform="translate(0.983398 0.98291)"/>
</clipPath>
</defs>
</svg>
