<svg width="16" height="13" viewBox="0 0 16 13" fill="none" xmlns="http://www.w3.org/2000/svg">
<g clip-path="url(#clip0_37_225)">
<path d="M14.1064 3.19754C14.1168 3.33754 14.1168 3.47674 14.1168 3.61594C14.1168 7.87594 10.8744 12.7847 4.9488 12.7847C3.1232 12.7847 1.4272 12.2559 0 11.3375C0.2592 11.3671 0.5088 11.3775 0.7784 11.3775C2.22879 11.381 3.63812 10.896 4.7792 10.0007C4.10674 9.98857 3.45486 9.7667 2.91459 9.36613C2.37432 8.96555 1.97263 8.40625 1.7656 7.76634C1.9648 7.79594 2.1648 7.81594 2.3744 7.81594C2.6632 7.81594 2.9536 7.77594 3.2232 7.70634C2.49341 7.55899 1.83718 7.16342 1.36609 6.58688C0.895011 6.01035 0.638154 5.28846 0.6392 4.54394V4.50394C1.0688 4.74314 1.5672 4.89274 2.0952 4.91274C1.65287 4.61881 1.29018 4.21996 1.03947 3.75177C0.788768 3.28358 0.65785 2.76062 0.6584 2.22954C0.6584 1.63114 0.8176 1.08234 1.0968 0.603937C1.90651 1.59995 2.9164 2.41479 4.06107 2.99566C5.20574 3.57654 6.45965 3.91051 7.7416 3.97594C7.692 3.73594 7.6616 3.48714 7.6616 3.23754C7.66139 2.81431 7.7446 2.39518 7.90646 2.00413C8.06833 1.61307 8.30568 1.25776 8.60495 0.958487C8.90422 0.659218 9.25954 0.421866 9.65059 0.259999C10.0416 0.0981332 10.4608 0.0149268 10.884 0.0151371C11.812 0.0151371 12.6496 0.403937 13.2384 1.03274C13.9598 0.893231 14.6516 0.629875 15.2832 0.254337C15.0427 0.99899 14.539 1.63042 13.8664 2.03034C14.5062 1.95736 15.1315 1.7891 15.7216 1.53114C15.2809 2.17362 14.7348 2.73701 14.1064 3.19754Z" fill="white"/>
</g>
<defs>
<clipPath id="clip0_37_225">
<rect width="16" height="12.8" fill="white"/>
</clipPath>
</defs>
</svg>
