<svg width="16" height="12" viewBox="0 0 16 12" fill="none" xmlns="http://www.w3.org/2000/svg">
<g clip-path="url(#clip0_37_255)">
<path d="M15.1771 2.23309C15.0961 1.93257 14.9378 1.65851 14.718 1.43818C14.4982 1.21786 14.2245 1.05894 13.9242 0.977265C12.8106 0.671487 8.35544 0.666509 8.35544 0.666509C8.35544 0.666509 3.90104 0.661531 2.78673 0.953798C2.48659 1.03924 2.21345 1.2004 1.99353 1.4218C1.77362 1.64321 1.61431 1.91744 1.53091 2.21815C1.23722 3.33175 1.23438 5.64144 1.23438 5.64144C1.23438 5.64144 1.23153 7.96251 1.52309 9.06473C1.68664 9.67415 2.16664 10.1556 2.77678 10.3198C3.90175 10.6256 8.34478 10.6306 8.34478 10.6306C8.34478 10.6306 12.7999 10.6356 13.9135 10.344C14.2139 10.2625 14.4879 10.1039 14.7083 9.88406C14.9286 9.66418 15.0878 9.39059 15.17 9.09033C15.4644 7.97744 15.4666 5.66846 15.4666 5.66846C15.4666 5.66846 15.4808 3.34669 15.1771 2.23309ZM6.93038 7.78118L6.93393 3.51451L10.6367 5.6514L6.93038 7.78118Z" fill="white"/>
</g>
<defs>
<clipPath id="clip0_37_255">
<rect width="14.9334" height="10.6667" fill="white" transform="translate(0.533203 0.666504)"/>
</clipPath>
</defs>
</svg>
